<?xml version="1.0" encoding="UTF-8" standalone="no"?>
<!-- Created with Inkscape (http://www.inkscape.org/) -->

<svg
   width="210mm"
   height="297mm"
   viewBox="0 0 210 297"
   version="1.1"
   id="svg5"
   inkscape:version="1.2.2 (732a01da63, 2022-12-09)"
   sodipodi:docname="kresba-1.svg"
   xmlns:inkscape="http://www.inkscape.org/namespaces/inkscape"
   xmlns:sodipodi="http://sodipodi.sourceforge.net/DTD/sodipodi-0.dtd"
   xmlns:xlink="http://www.w3.org/1999/xlink"
   xmlns="http://www.w3.org/2000/svg"
   xmlns:svg="http://www.w3.org/2000/svg">
  <sodipodi:namedview
     id="namedview7"
     pagecolor="#ffffff"
     bordercolor="#000000"
     borderopacity="0.25"
     inkscape:showpageshadow="2"
     inkscape:pageopacity="0.0"
     inkscape:pagecheckerboard="0"
     inkscape:deskcolor="#d1d1d1"
     inkscape:document-units="mm"
     showgrid="false"
     inkscape:zoom="1.0255231"
     inkscape:cx="432.46223"
     inkscape:cy="1291.536"
     inkscape:window-width="1920"
     inkscape:window-height="1001"
     inkscape:window-x="-9"
     inkscape:window-y="-9"
     inkscape:window-maximized="1"
     inkscape:current-layer="layer1" />
  <defs
     id="defs2">
    <inkscape:path-effect
       effect="skeletal"
       id="path-effect3668"
       is_visible="true"
       lpeversion="1"
       pattern="M 0,4.9921382 C 0,2.2364779 2.2364779,0 4.9921382,0 c 2.7556604,0 4.9921383,2.2364779 4.9921383,4.9921382 0,2.7556604 -2.2364779,4.9921383 -4.9921383,4.9921383 C 2.2364779,9.9842765 0,7.7477986 0,4.9921382 Z"
       copytype="single_stretched"
       prop_scale="1"
       scale_y_rel="false"
       spacing="0"
       normal_offset="0"
       tang_offset="0"
       prop_units="false"
       vertical_pattern="false"
       hide_knot="false"
       fuse_tolerance="0" />
    <inkscape:path-effect
       effect="spiro"
       id="path-effect3664"
       is_visible="true"
       lpeversion="1" />
    <inkscape:path-effect
       effect="spiro"
       id="path-effect3660"
       is_visible="true"
       lpeversion="1" />
    <inkscape:path-effect
       effect="spiro"
       id="path-effect3143"
       is_visible="true"
       lpeversion="1" />
    <inkscape:path-effect
       effect="spiro"
       id="path-effect3129"
       is_visible="true"
       lpeversion="1" />
    <inkscape:path-effect
       effect="spiro"
       id="path-effect2509"
       is_visible="true"
       lpeversion="1" />
  </defs>
  <g
     inkscape:label="Vrstva 1"
     inkscape:groupmode="layer"
     id="layer1">
    <rect
       style="fill:#000000;stroke-width:0.264583"
       id="rect1783"
       width="211.04271"
       height="297.73016"
       x="0"
       y="-0.51599681" />
    <rect
       style="fill:#ff0000;stroke-width:0.264583"
       id="rect2103"
       width="155.06757"
       height="73.702705"
       x="28.459459"
       y="45.608109"
       ry="22.986486" />
    <circle
       id="path2376"
       style="fill:#ffffff;stroke:#000000;stroke-width:0.264583"
       cx="76.62162"
       cy="63.486488"
       r="0.048599642" />
    <g
       aria-label="YouTube"
       transform="scale(0.89833886,1.1131657)"
       id="text2794"
       style="font-size:20.2955px;fill:#ffffff;stroke-width:0.264583">
      <path
         d="m 87.811371,108.84929 -7.293577,8.15438 -1.220544,5.62249 -3.748321,-0.52994 1.182402,-5.44677 -3.473988,-9.8578 4.255906,0.6017 1.922578,6.06685 4.256296,-5.19328 z"
         style="font-weight:bold;-inkscape-font-specification:'sans-serif Bold';fill:#ff0000"
         id="path3575"
         inkscape:highlight-color="#635509" />
      <path
         d="m 99.466768,116.83532 q 0,2.74505 -1.605405,4.33063 -1.595496,1.57568 -4.489191,1.57568 -2.893694,0 -4.4991,-1.57568 -1.595496,-1.58558 -1.595496,-4.33063 0,-2.76486 1.605406,-4.34054 1.615316,-1.57568 4.48919,-1.57568 2.913515,0 4.4991,1.58559 1.595496,1.58559 1.595496,4.33063 z m -4.390091,2.70541 q 0.346847,-0.42613 0.515316,-1.02072 0.178378,-0.60451 0.178378,-1.66487 0,-0.98108 -0.178378,-1.64504 -0.178379,-0.66397 -0.495496,-1.06036 -0.317117,-0.40631 -0.763063,-0.57478 -0.445946,-0.16847 -0.961262,-0.16847 -0.515315,0 -0.921621,0.13874 -0.396397,0.13874 -0.763064,0.55496 -0.327027,0.38648 -0.525225,1.06036 -0.188288,0.67387 -0.188288,1.69459 0,0.91171 0.168468,1.58559 0.168469,0.66396 0.495496,1.07027 0.317117,0.38649 0.753153,0.56486 0.445946,0.17838 1.010811,0.17838 0.485586,0 0.921622,-0.15856 0.445946,-0.16847 0.753153,-0.55495 z"
         style="font-weight:bold;-inkscape-font-specification:'sans-serif Bold';fill:#ff0000"
         id="path3577" />
      <path
         d="m 113.11272,122.39478 h -3.56757 v -1.22883 q -0.99099,0.75316 -1.81352,1.14955 -0.82252,0.38649 -1.96216,0.38649 -1.84324,0 -2.84414,-1.06036 -0.99099,-1.06036 -0.99099,-3.13153 v -7.24415 h 3.58738 v 5.51982 q 0,0.84235 0.0495,1.40721 0.0595,0.55496 0.25766,0.92162 0.18829,0.36667 0.56487,0.53514 0.38648,0.16847 1.07027,0.16847 0.45585,0 1.01081,-0.16847 0.55495,-0.16847 1.07027,-0.4955 v -7.88829 h 3.56757 z"
         style="font-weight:bold;-inkscape-font-specification:'sans-serif Bold';fill:#ff0000"
         id="path3579" />
      <path
         d="m 128.22533,110.49298 h -4.60811 v 11.9018 h -3.8054 v -11.9018 h -4.60811 v -2.85406 h 13.02162 z"
         style="font-weight:bold;-inkscape-font-specification:'sans-serif Bold'"
         id="path3581" />
      <path
         d="m 141.40551,122.39478 h -3.56756 v -1.22883 q -0.991,0.75316 -1.81352,1.14955 -0.82252,0.38649 -1.96216,0.38649 -1.84324,0 -2.84415,-1.06036 -0.99099,-1.06036 -0.99099,-3.13153 v -7.24415 h 3.58739 v 5.51982 q 0,0.84235 0.0496,1.40721 0.0595,0.55496 0.25766,0.92162 0.18829,0.36667 0.56486,0.53514 0.38649,0.16847 1.07027,0.16847 0.45586,0 1.01082,-0.16847 0.55495,-0.16847 1.07027,-0.4955 v -7.88829 h 3.56756 z"
         style="font-weight:bold;-inkscape-font-specification:'sans-serif Bold'"
         id="path3583" />
      <path
         d="m 156.3893,116.67676 q 0,2.62613 -1.45675,4.28109 -1.44685,1.65495 -3.61712,1.65495 -0.93153,0 -1.63514,-0.1982 -0.7036,-0.1982 -1.33783,-0.57477 l -0.14865,0.55495 h -3.41892 v -15.41982 h 3.56757 v 5.45045 q 0.82252,-0.65405 1.67477,-1.06036 0.86216,-0.40631 1.98198,-0.40631 2.11081,0 3.25045,1.52613 1.13964,1.51622 1.13964,4.19189 z m -3.67657,0.0694 q 0,-1.48648 -0.50541,-2.28919 -0.5054,-0.8027 -1.8036,-0.8027 -0.50541,0 -1.04054,0.15856 -0.53514,0.14865 -1.02072,0.43604 v 5.58919 q 0.38648,0.13873 0.73333,0.18828 0.34685,0.0496 0.83243,0.0496 1.41712,0 2.11081,-0.83243 0.6937,-0.83243 0.6937,-2.4973 z"
         style="font-weight:bold;-inkscape-font-specification:'sans-serif Bold'"
         id="path3585" />
      <path
         d="m 169.92624,117.48938 h -8.16576 q 0.0793,1.3081 0.99099,2.0018 0.92162,0.69369 2.7054,0.69369 1.12973,0 2.19009,-0.4063 1.06037,-0.40631 1.67478,-0.87208 h 0.3964 v 2.86397 q -1.20901,0.48558 -2.27928,0.7036 -1.07027,0.21802 -2.36847,0.21802 -3.34955,0 -5.13334,-1.50631 -1.78378,-1.5063 -1.78378,-4.29099 0,-2.75495 1.68468,-4.36036 1.6946,-1.61532 4.63784,-1.61532 2.71532,0 4.08289,1.37748 1.36756,1.36757 1.36756,3.94415 z m -3.54774,-2.09099 q -0.0297,-1.11982 -0.55496,-1.68469 -0.52522,-0.56486 -1.63513,-0.56486 -1.03064,0 -1.6946,0.53513 -0.66396,0.53514 -0.74324,1.71442 z"
         style="font-weight:bold;-inkscape-font-specification:'sans-serif Bold'"
         id="path3587" />
    </g>
    <circle
       style="fill:#008000;stroke-width:0.264583"
       id="path3002"
       cx="55.277031"
       cy="194.29054"
       r="53.452705" />
    <g
       aria-label="Spotify"
       transform="scale(0.96830739,1.0327299)"
       id="text3592"
       style="font-weight:bold;font-size:10.0644px;-inkscape-font-specification:'sans-serif Bold';fill:#ffffff;stroke-width:0.264582">
      <path
         d="m 39.94844,246.58342 c -0.332272,0.64995 -0.878849,1.05463 -1.63973,1.21403 -0.756415,0.15777 -1.607311,-0.24076 -2.552689,-0.66565 -0.546547,-0.24563 -0.999502,-0.24236 -1.358865,-0.52013 -0.354901,-0.2794 -0.671852,-0.57262 -0.950853,-0.87967 l 0.808778,-1.58203 0.09192,1.40858 c 0.208084,0.43866 0.584955,-0.49396 0.942211,-0.14811 0.36021,0.34719 0.741208,0.61107 1.142994,0.79164 0.103401,0.0465 0.243832,0.0987 0.421295,0.15663 0.177461,0.0579 0.329942,0.0901 0.457442,0.0966 0.157189,0.005 0.297526,-0.0133 0.421011,-0.056 0.126456,-0.0413 0.229707,-0.14019 0.309752,-0.29676 0.07401,-0.14476 0.07541,-0.29672 0.0042,-0.45589 -0.06675,-0.1608 -0.203954,-0.32238 -0.411602,-0.48473 -0.217951,-0.17063 -0.452945,-0.34345 -0.704981,-0.51847 -0.247552,-0.17669 -0.472071,-0.35934 -0.673556,-0.54797 -0.46328,-0.42983 -0.738987,-0.85347 -0.827122,-1.27092 -0.08367,-0.41908 -0.0085,-0.85758 0.225643,-1.31549 0.314149,-0.6145 0.8449,-0.99178 1.592255,-1.13183 0.751818,-0.14167 1.560533,-0.018 2.426145,0.37105 0.434283,0.19518 0.840759,0.43054 1.219427,0.70609 0.383131,0.27392 0.697324,0.54411 0.942581,0.81056 l -0.918365,0.21719 -0.04039,1.2211 c -0.157144,-0.33221 -0.392974,-0.65619 -0.707491,-0.97194 -0.310057,-0.31737 -0.665979,-0.56634 -1.067765,-0.74691 -0.141807,-0.0637 -0.2889,-0.11713 -0.441279,-0.16018 -0.147919,-0.0447 -0.300463,-0.0696 -0.457633,-0.0749 -0.137869,-0.007 -0.271575,0.016 -0.401118,0.0704 -0.128031,0.0515 -0.221499,0.1348 -0.280403,0.25001 -0.08911,0.17431 -0.09134,0.3386 -0.0067,0.49289 0.08612,0.15133 0.294197,0.34839 0.624217,0.59118 0.216591,0.15907 0.423584,0.31205 0.620979,0.45892 0.200371,0.14817 0.40792,0.32138 0.622646,0.51963 0.420611,0.39249 0.677314,0.78579 0.77011,1.17991 0.09726,0.39249 0.0296,0.81622 -0.20299,1.27118 z"
         id="path3594"
         sodipodi:nodetypes="ccscccccssccscccccscscccccscccsccccccc" />
      <path
         d="m 47.964314,246.21367 c 0,0.45539 -0.07044,0.86982 -0.211313,1.2433 -0.137599,0.37349 -0.319427,0.68145 -0.545483,0.92389 -0.235884,0.25554 -0.502892,0.44883 -0.801024,0.57988 -0.298131,0.13105 -0.617558,0.19657 -0.95828,0.19657 -0.314513,0 -0.581521,-0.0344 -0.801024,-0.1032 -0.219503,-0.0655 -0.443921,-0.1589 -0.673253,-0.28011 v 2.29987 l -2.801598,-1.90489 1.032465,-5.6385 h 1.769133 v 0.57497 c 0.271922,-0.21623 0.548758,-0.3915 0.830509,-0.52582 0.285027,-0.13433 0.612645,-0.20149 0.982852,-0.20149 0.687996,0 1.222012,0.25227 1.602048,0.7568 0.383312,0.50453 0.574968,1.19744 0.574968,2.07873 z m -1.82319,0.0344 c 0,-0.53729 -0.09173,-0.92716 -0.275198,-1.1696 -0.183466,-0.24243 -0.473407,-0.36365 -0.869824,-0.36365 -0.167085,0 -0.339084,0.0262 -0.515997,0.0786 -0.176913,0.0491 -0.345636,0.12121 -0.506168,0.21622 v 2.77656 c 0.117942,0.0459 0.244074,0.0754 0.378397,0.0885 0.134323,0.0131 0.267008,0.0197 0.398055,0.0197 0.468493,0 0.817405,-0.13596 1.046737,-0.40788 0.229332,-0.2752 0.343998,-0.688 0.343998,-1.23839 z"
         id="path3596"
         sodipodi:nodetypes="sccssccccccccscsssscccsscss" />
      <path
         d="m 54.883589,246.2923 c 0,0.9075 -0.198759,1.62334 -0.729499,2.14753 -0.527464,0.52091 -1.336127,0.78136 -2.29277,0.78136 -0.956642,0 -1.700333,-0.26045 -2.231073,-0.78136 -0.527463,-0.52419 -0.791195,-1.24003 -0.791195,-2.14753 0,-0.91405 0.26537,-1.63154 0.79611,-2.15245 0.534016,-0.52091 1.276069,-0.78137 2.226158,-0.78137 0.963195,0 1.706886,0.2621 2.231073,0.78629 0.527464,0.52419 0.791196,1.24003 0.791196,2.14753 z m -2.177016,1.34159 c 0.114666,-0.14087 0.199846,-0.3096 0.255541,-0.50617 0.05897,-0.19985 0.08846,-0.47505 0.08846,-0.8256 0,-0.32434 -0.02949,-0.59626 -0.08846,-0.81576 -0.05897,-0.21951 -0.140878,-0.39478 -0.245713,-0.52583 -0.104837,-0.13432 -0.23097,-0.22933 -0.378398,-0.28502 -0.147427,-0.0557 -0.306322,-0.0836 -0.476683,-0.0836 -0.170361,0 -0.322703,0.0229 -0.457026,0.0688 -0.131047,0.0459 -0.257179,0.1376 -0.378398,0.2752 -0.108113,0.12777 -0.194932,0.30305 -0.260455,0.52583 -0.06225,0.22278 -0.09337,0.50289 -0.09337,0.84033 0,0.30141 0.02785,0.56351 0.08354,0.78629 0.05569,0.2195 0.137598,0.39641 0.245713,0.53074 0.104837,0.12777 0.229332,0.22114 0.373484,0.28011 0.147427,0.0589 0.314512,-0.53615 0.501254,-0.53615 0.160533,0 0.312875,0.59835 0.457026,0.54595 0.147428,-0.0557 0.271923,-0.14747 0.373484,-0.2752 z"
         id="path3598"
         sodipodi:nodetypes="ssscscscsccsscsscccscccsccc" />
      <path
         d="m 59.679905,249.00005 c -0.190018,0.0491 -0.391503,0.0868 -0.604454,0.11303 -0.212951,0.0295 -0.473407,0.0442 -0.781367,0.0442 -0.687996,0 -1.200717,-0.13924 -1.538163,-0.41771 -0.334169,-0.27848 -0.501254,-0.75516 -0.501254,-1.43005 v -2.57999 h -0.72731 v -1.19908 l 0.261035,-0.0312 0.466275,-1.54624 H 58.0238 l 0.566191,1.54624 1.089914,0.0312 v 1.19908 H 58.0238 v 1.95588 c 0,0.19329 0.0016,0.36201 0.0049,0.50616 0.0033,0.14415 0.02948,0.27356 0.07863,0.38823 0.04587,0.11467 0.126133,0.2064 0.240799,0.2752 0.117942,0.0655 0.288303,0.0983 0.511083,0.0983 0.09173,0 0.211313,-0.0197 0.35874,-0.059 0.150704,-0.0393 0.255542,-0.0754 0.314513,-0.10811 h 0.147428 z"
         id="path3600"
         sodipodi:nodetypes="ccscsccccccccccssccscccc" />
      <path
         d="m 62.505603,249.04919 h -1.769132 v -5.51871 h 1.769132 z m 0.04914,-6.30499 -1.467754,-0.3435 -0.399664,-0.99809 h 1.867418 z"
         id="path3602"
         sodipodi:nodetypes="cccccccccc" />
      <path
         d="m 67.75403,242.69997 h -0.132685 c -0.07863,-0.0229 -0.181827,-0.0491 -0.309598,-0.0786 -0.124495,-0.0295 -0.258818,-0.0442 -0.40297,-0.0442 -0.347274,0 -0.583158,0.0623 -0.707653,0.18674 -0.121218,0.12449 -0.181827,0.36529 -0.181827,0.72239 v 0.0442 h 1.366163 v 1.19908 h -1.307192 v 4.31963 h -1.769133 v -4.31963 h -0.756796 v -1.19908 h 0.756796 v -0.15234 c 0,-0.67489 0.178551,-1.18106 0.535654,-1.5185 0.360379,-0.33745 0.904223,-0.50617 1.631534,-0.50617 0.262093,0 0.499616,0.01 0.712567,0.0295 -0.0868,0.76587 -0.797661,0.38284 -0.633852,0.4123 z"
         id="path3604"
         sodipodi:nodetypes="cccscsccccccccccscsccc" />
      <path
         d="m 70.818894,245.88035 1.357966,-2.34987 h 1.818276 l -3.066497,7.54339 h -1.916561 l 0.808127,-0.25278 -2.080919,-7.29061 h 1.857589 z"
         id="path3606"
         sodipodi:nodetypes="ccccccccc" />
    </g>
    <path
       style="fill:#ffffff;stroke:none;stroke-width:0.219768"
       d="m 30.959811,157.12104 c -0.566063,-1.25618 1.330244,-3.57386 5.219619,-6.0653 3.81308,-2.44256 9.923976,-5.17011 17.35168,-5.78873 0,0 0.021,-0.002 0.021,-0.002 4.755317,-0.36072 9.178155,0.39011 12.891403,1.84847 8.373374,3.35149 10.860817,8.79849 9.924024,10.0073 -1.161908,1.4993 -5.987797,-0.64701 -12.351262,-1.56446 -2.919015,-0.44668 -6.115559,-0.58906 -9.731627,-0.33395 0,0 -0.01636,0.001 -0.01636,0.001 -5.395097,0.33541 -11.608673,1.79388 -15.505804,2.43197 -4.277953,0.70044 -7.223269,0.7512 -7.802672,-0.53458 z"
       id="path3666"
       inkscape:path-effect="#path-effect3668"
       inkscape:original-d="m 30.959811,157.12104 c 15.392809,-6.93635 30.69413,-11.40256 45.40772,0"
       class="UnoptimicedTransforms"
       sodipodi:nodetypes="cc"
       transform="matrix(1.2089176,0,0,1.1989392,-13.671463,-20.367184)" />
    <use
       x="0"
       y="0"
       xlink:href="#path3666"
       id="use3670"
       transform="matrix(1.1921328,0,0,0.94498688,-8.4115227,33.222759)"
       style="stroke-width:0.94216" />
    <use
       x="0"
       y="0"
       xlink:href="#use3670"
       id="use3672"
       transform="translate(0.77399526,18.833885)" />
  </g>
  <g
     inkscape:groupmode="layer"
     id="layer2"
     inkscape:label="Vrstva 2">
    <path
       sodipodi:type="star"
       style="fill:#ffffff;stroke-width:0.363227"
       id="path2738"
       inkscape:flatsided="false"
       sodipodi:sides="3"
       sodipodi:cx="64.581085"
       sodipodi:cy="68.229729"
       sodipodi:r1="37.743679"
       sodipodi:r2="18.87184"
       sodipodi:arg1="2.0863453"
       sodipodi:arg2="3.1335429"
       inkscape:rounded="0"
       inkscape:randomized="0"
       d="M 45.972978,101.06757 45.709857,68.381641 45.446736,35.695716 73.88514,51.81081 102.32354,67.925903 74.148259,84.496736 Z"
       inkscape:transform-center-x="-7.2120606"
       inkscape:transform-center-y="0.10398517"
       transform="matrix(0.77515253,0,0,0.68451203,52.561244,34.61292)" />
  </g>
</svg>
