<?xml version="1.0" encoding="UTF-8" standalone="no"?>
<!-- Created with Inkscape (http://www.inkscape.org/) -->

<svg
   width="210mm"
   height="297mm"
   viewBox="0 0 210 297"
   version="1.1"
   id="svg5"
   inkscape:version="1.2.2 (732a01da63, 2022-12-09)"
   sodipodi:docname="kresba.svg"
   xmlns:inkscape="http://www.inkscape.org/namespaces/inkscape"
   xmlns:sodipodi="http://sodipodi.sourceforge.net/DTD/sodipodi-0.dtd"
   xmlns:xlink="http://www.w3.org/1999/xlink"
   xmlns="http://www.w3.org/2000/svg"
   xmlns:svg="http://www.w3.org/2000/svg">
  <sodipodi:namedview
     id="namedview7"
     pagecolor="#ffffff"
     bordercolor="#000000"
     borderopacity="0.25"
     inkscape:showpageshadow="2"
     inkscape:pageopacity="0.0"
     inkscape:pagecheckerboard="0"
     inkscape:deskcolor="#d1d1d1"
     inkscape:document-units="mm"
     showgrid="false"
     inkscape:zoom="1.0255231"
     inkscape:cx="474.87961"
     inkscape:cy="349.09015"
     inkscape:window-width="1920"
     inkscape:window-height="1001"
     inkscape:window-x="-9"
     inkscape:window-y="-9"
     inkscape:window-maximized="1"
     inkscape:current-layer="layer1" />
  <defs
     id="defs2">
    <inkscape:perspective
       sodipodi:type="inkscape:persp3d"
       inkscape:vp_x="272.55405 : 99.608103 : 1"
       inkscape:vp_y="0 : 1000 : 0"
       inkscape:vp_z="61.864871 : 272.18919 : 1"
       inkscape:persp3d-origin="98.797298 : 73.824323 : 1"
       id="perspective551" />
  </defs>
  <g
     inkscape:label="Vrstva 1"
     inkscape:groupmode="layer"
     id="layer1">
    <ellipse
       style="fill:#000000;stroke-width:0.264582"
       id="path1215"
       cx="28.398647"
       cy="20.614862"
       rx="7.6013513"
       ry="7.1148648"
       inkscape:tile-cx="11.128378"
       inkscape:tile-cy="29.006755"
       inkscape:tile-w="14.229728"
       inkscape:tile-h="13.499999"
       inkscape:tile-x0="4.0135135"
       inkscape:tile-y0="22.256756" />
    <use
       x="0"
       y="0"
       inkscape:tiled-clone-of="#path1215"
       xlink:href="#path1215"
       id="use1217"
       style="stroke-width:0.942338;fill:#d40000" />
    <use
       x="0"
       y="0"
       inkscape:tiled-clone-of="#path1215"
       xlink:href="#path1215"
       transform="translate(3.5675676e-7,14.229729)"
       id="use1219"
       style="stroke-width:0.942338" />
    <use
       x="0"
       y="0"
       inkscape:tiled-clone-of="#path1215"
       xlink:href="#path1215"
       transform="translate(3.5675676e-7,42.689185)"
       id="use1223"
       style="stroke-width:0.942338" />
    <use
       x="0"
       y="0"
       inkscape:tiled-clone-of="#path1215"
       xlink:href="#path1215"
       transform="translate(3.5675676e-7,56.918914)"
       id="use1225"
       style="stroke-width:0.942338" />
    <use
       x="0"
       y="0"
       inkscape:tiled-clone-of="#path1215"
       xlink:href="#path1215"
       transform="translate(3.5675676e-7,71.148644)"
       id="use1227"
       style="stroke-width:0.942338" />
    <use
       x="0"
       y="0"
       inkscape:tiled-clone-of="#path1215"
       xlink:href="#path1215"
       transform="translate(3.5675676e-7,85.378373)"
       id="use1229"
       style="stroke-width:0.942338" />
    <use
       x="0"
       y="0"
       inkscape:tiled-clone-of="#path1215"
       xlink:href="#path1215"
       transform="translate(-0.36486454,99.972965)"
       id="use1233"
       style="stroke-width:0.942338" />
    <use
       x="0"
       y="0"
       inkscape:tiled-clone-of="#path1215"
       xlink:href="#path1215"
       transform="translate(-0.36486454,128.43243)"
       id="use1237"
       style="stroke-width:0.942338" />
    <use
       x="0"
       y="0"
       inkscape:tiled-clone-of="#path1215"
       xlink:href="#path1215"
       transform="translate(-0.36486454,142.66216)"
       id="use1239"
       style="stroke-width:0.942338" />
    <use
       x="0"
       y="0"
       inkscape:tiled-clone-of="#path1215"
       xlink:href="#path1215"
       transform="translate(15.202701)"
       id="use1241"
       style="stroke-width:0.942338" />
    <use
       x="0"
       y="0"
       inkscape:tiled-clone-of="#path1215"
       xlink:href="#path1215"
       transform="translate(15.202701,14.229729)"
       id="use1243"
       style="stroke-width:0.942338" />
    <use
       x="0"
       y="0"
       inkscape:tiled-clone-of="#path1215"
       xlink:href="#path1215"
       transform="translate(15.202701,42.689185)"
       id="use1247"
       style="stroke-width:0.942338" />
    <use
       x="0"
       y="0"
       inkscape:tiled-clone-of="#path1215"
       xlink:href="#path1215"
       transform="translate(15.202701,71.148644)"
       id="use1251"
       style="stroke-width:0.942338" />
    <use
       x="0"
       y="0"
       inkscape:tiled-clone-of="#path1215"
       xlink:href="#path1215"
       transform="translate(14.837836,99.972965)"
       id="use1257"
       style="stroke-width:0.942338" />
    <use
       x="0"
       y="0"
       inkscape:tiled-clone-of="#path1215"
       xlink:href="#path1215"
       transform="translate(14.837836,128.43243)"
       id="use1261"
       style="stroke-width:0.942338" />
    <use
       x="0"
       y="0"
       inkscape:tiled-clone-of="#path1215"
       xlink:href="#path1215"
       transform="translate(14.837836,142.66216)"
       id="use1263"
       style="stroke-width:0.942338" />
    <use
       x="0"
       y="0"
       inkscape:tiled-clone-of="#path1215"
       xlink:href="#path1215"
       transform="translate(30.405403,42.689185)"
       id="use1271"
       style="stroke-width:0.942338" />
    <use
       x="0"
       y="0"
       inkscape:tiled-clone-of="#path1215"
       xlink:href="#path1215"
       transform="translate(30.405403,71.148644)"
       id="use1275"
       style="stroke-width:0.942338" />
    <use
       x="0"
       y="0"
       inkscape:tiled-clone-of="#path1215"
       xlink:href="#path1215"
       transform="translate(30.040538,99.972965)"
       id="use1281"
       style="stroke-width:0.942338" />
    <use
       x="0"
       y="0"
       inkscape:tiled-clone-of="#path1215"
       xlink:href="#path1215"
       transform="translate(45.608104)"
       id="use1289"
       style="stroke-width:0.942338" />
    <use
       x="0"
       y="0"
       inkscape:tiled-clone-of="#path1215"
       xlink:href="#path1215"
       transform="translate(45.608104,14.229729)"
       id="use1291"
       style="stroke-width:0.942338" />
    <use
       x="0"
       y="0"
       inkscape:tiled-clone-of="#path1215"
       xlink:href="#path1215"
       transform="translate(45.608104,28.459456)"
       id="use1293"
       style="stroke-width:0.942338" />
    <use
       x="0"
       y="0"
       inkscape:tiled-clone-of="#path1215"
       xlink:href="#path1215"
       transform="translate(45.608104,42.689185)"
       id="use1295"
       style="stroke-width:0.942338" />
    <use
       x="0"
       y="0"
       inkscape:tiled-clone-of="#path1215"
       xlink:href="#path1215"
       transform="translate(45.608104,71.148644)"
       id="use1299"
       style="stroke-width:0.942338" />
    <use
       x="0"
       y="0"
       inkscape:tiled-clone-of="#path1215"
       xlink:href="#path1215"
       transform="translate(45.243239,99.972965)"
       id="use1305"
       style="stroke-width:0.942338" />
    <use
       x="0"
       y="0"
       inkscape:tiled-clone-of="#path1215"
       xlink:href="#path1215"
       transform="translate(45.243239,114.2027)"
       id="use1307"
       style="stroke-width:0.942338" />
    <use
       x="0"
       y="0"
       inkscape:tiled-clone-of="#path1215"
       xlink:href="#path1215"
       transform="translate(45.243239,128.43243)"
       id="use1309"
       style="stroke-width:0.942338" />
    <use
       x="0"
       y="0"
       inkscape:tiled-clone-of="#path1215"
       xlink:href="#path1215"
       transform="translate(45.243239,142.66216)"
       id="use1311"
       style="stroke-width:0.942338" />
    <use
       x="0"
       y="0"
       inkscape:tiled-clone-of="#path1215"
       xlink:href="#path1215"
       transform="translate(60.810805)"
       id="use1313"
       style="stroke-width:0.942338" />
    <use
       x="0"
       y="0"
       inkscape:tiled-clone-of="#path1215"
       xlink:href="#path1215"
       transform="translate(60.810805,71.148644)"
       id="use1323"
       style="stroke-width:0.942338" />
    <use
       x="0"
       y="0"
       inkscape:tiled-clone-of="#path1215"
       xlink:href="#path1215"
       transform="translate(60.44594,142.66216)"
       id="use1335"
       style="stroke-width:0.942338" />
    <use
       x="0"
       y="0"
       inkscape:tiled-clone-of="#path1215"
       xlink:href="#path1215"
       transform="translate(76.013507)"
       id="use1337"
       style="stroke-width:0.942338" />
    <use
       x="0"
       y="0"
       inkscape:tiled-clone-of="#path1215"
       xlink:href="#path1215"
       transform="translate(76.013507,14.229729)"
       id="use1339"
       style="stroke-width:0.942338" />
    <use
       x="0"
       y="0"
       inkscape:tiled-clone-of="#path1215"
       xlink:href="#path1215"
       transform="translate(76.013507,28.459456)"
       id="use1341"
       style="stroke-width:0.942338" />
    <use
       x="0"
       y="0"
       inkscape:tiled-clone-of="#path1215"
       xlink:href="#path1215"
       transform="translate(76.013507,42.689185)"
       id="use1343"
       style="stroke-width:0.942338" />
    <use
       x="0"
       y="0"
       inkscape:tiled-clone-of="#path1215"
       xlink:href="#path1215"
       transform="translate(76.013507,56.918914)"
       id="use1345"
       style="stroke-width:0.942338" />
    <use
       x="0"
       y="0"
       inkscape:tiled-clone-of="#path1215"
       xlink:href="#path1215"
       transform="translate(75.283777,128.43243)"
       id="use1347"
       style="stroke-width:0.942338" />
    <use
       x="0"
       y="0"
       inkscape:tiled-clone-of="#path1215"
       xlink:href="#path1215"
       transform="translate(76.013507,85.378373)"
       id="use1349"
       style="stroke-width:0.942338" />
    <use
       x="0"
       y="0"
       inkscape:tiled-clone-of="#path1215"
       xlink:href="#path1215"
       transform="translate(75.648642,99.972965)"
       id="use1353"
       style="stroke-width:0.942338" />
    <use
       x="0"
       y="0"
       inkscape:tiled-clone-of="#path1215"
       xlink:href="#path1215"
       transform="translate(75.648642,114.2027)"
       id="use1355"
       style="stroke-width:0.942338" />
    <use
       x="0"
       y="0"
       inkscape:tiled-clone-of="#path1215"
       xlink:href="#path1215"
       transform="translate(75.648642,142.66216)"
       id="use1359"
       style="stroke-width:0.942338" />
    <use
       x="0"
       y="0"
       inkscape:tiled-clone-of="#path1215"
       xlink:href="#path1215"
       transform="translate(90.729721,-0.36486483)"
       id="use1385"
       style="stroke-width:0.942338" />
    <use
       x="0"
       y="0"
       inkscape:tiled-clone-of="#path1215"
       xlink:href="#path1215"
       transform="translate(90.729721,70.783779)"
       id="use1395"
       style="stroke-width:0.942338" />
    <use
       x="0"
       y="0"
       inkscape:tiled-clone-of="#path1215"
       xlink:href="#path1215"
       transform="translate(90.729721,141.93244)"
       id="use1407"
       style="stroke-width:0.942338" />
    <use
       x="0"
       y="0"
       inkscape:tiled-clone-of="#path1215"
       xlink:href="#path1215"
       transform="translate(105.93242,-0.36486483)"
       id="use1409"
       style="stroke-width:0.942338" />
    <use
       x="0"
       y="0"
       inkscape:tiled-clone-of="#path1215"
       xlink:href="#path1215"
       transform="translate(105.93242,13.864864)"
       id="use1411"
       style="stroke-width:0.942338" />
    <use
       x="0"
       y="0"
       inkscape:tiled-clone-of="#path1215"
       xlink:href="#path1215"
       transform="translate(105.93242,28.094591)"
       id="use1413"
       style="stroke-width:0.942338" />
    <use
       x="0"
       y="0"
       inkscape:tiled-clone-of="#path1215"
       xlink:href="#path1215"
       transform="translate(105.93242,42.32432)"
       id="use1415"
       style="stroke-width:0.942338" />
    <use
       x="0"
       y="0"
       inkscape:tiled-clone-of="#path1215"
       xlink:href="#path1215"
       transform="translate(105.93242,70.783779)"
       id="use1419"
       style="stroke-width:0.942338" />
    <use
       x="0"
       y="0"
       inkscape:tiled-clone-of="#path1215"
       xlink:href="#path1215"
       transform="translate(105.56756,99.6081)"
       id="use1425"
       style="stroke-width:0.942338" />
    <use
       x="0"
       y="0"
       inkscape:tiled-clone-of="#path1215"
       xlink:href="#path1215"
       transform="translate(105.56756,113.83784)"
       id="use1427"
       style="stroke-width:0.942338" />
    <use
       x="0"
       y="0"
       inkscape:tiled-clone-of="#path1215"
       xlink:href="#path1215"
       transform="translate(105.56756,128.06757)"
       id="use1429"
       style="stroke-width:0.942338" />
    <use
       x="0"
       y="0"
       inkscape:tiled-clone-of="#path1215"
       xlink:href="#path1215"
       transform="translate(105.56756,142.2973)"
       id="use1431"
       style="stroke-width:0.942338" />
    <use
       x="0"
       y="0"
       inkscape:tiled-clone-of="#path1215"
       xlink:href="#path1215"
       transform="translate(121.13513,42.32432)"
       id="use1439"
       style="stroke-width:0.942338" />
    <use
       x="0"
       y="0"
       inkscape:tiled-clone-of="#path1215"
       xlink:href="#path1215"
       transform="translate(121.13513,70.783779)"
       id="use1443"
       style="stroke-width:0.942338" />
    <use
       x="0"
       y="0"
       inkscape:tiled-clone-of="#path1215"
       xlink:href="#path1215"
       transform="translate(120.77027,99.6081)"
       id="use1449"
       style="stroke-width:0.942338" />
    <use
       x="0"
       y="0"
       inkscape:tiled-clone-of="#path1215"
       xlink:href="#path1215"
       transform="translate(136.33782,-0.36486483)"
       id="use1457"
       style="stroke-width:0.942338" />
    <use
       x="0"
       y="0"
       inkscape:tiled-clone-of="#path1215"
       xlink:href="#path1215"
       transform="translate(136.33782,13.864864)"
       id="use1459"
       style="stroke-width:0.942338" />
    <use
       x="0"
       y="0"
       inkscape:tiled-clone-of="#path1215"
       xlink:href="#path1215"
       transform="translate(136.33782,42.32432)"
       id="use1463"
       style="stroke-width:0.942338" />
    <use
       x="0"
       y="0"
       inkscape:tiled-clone-of="#path1215"
       xlink:href="#path1215"
       transform="translate(136.33782,70.783779)"
       id="use1467"
       style="stroke-width:0.942338" />
    <use
       x="0"
       y="0"
       inkscape:tiled-clone-of="#path1215"
       xlink:href="#path1215"
       transform="translate(135.97296,99.6081)"
       id="use1473"
       style="stroke-width:0.942338" />
    <use
       x="0"
       y="0"
       inkscape:tiled-clone-of="#path1215"
       xlink:href="#path1215"
       transform="translate(135.97296,128.06757)"
       id="use1477"
       style="stroke-width:0.942338" />
    <use
       x="0"
       y="0"
       inkscape:tiled-clone-of="#path1215"
       xlink:href="#path1215"
       transform="translate(135.97296,142.2973)"
       id="use1479"
       style="stroke-width:0.942338" />
    <use
       x="0"
       y="0"
       inkscape:tiled-clone-of="#path1215"
       xlink:href="#path1215"
       transform="translate(151.54052,-0.36486483)"
       id="use1481"
       style="stroke-width:0.942338" />
    <use
       x="0"
       y="0"
       inkscape:tiled-clone-of="#path1215"
       xlink:href="#path1215"
       transform="translate(151.54052,13.864864)"
       id="use1483"
       style="stroke-width:0.942338" />
    <use
       x="0"
       y="0"
       inkscape:tiled-clone-of="#path1215"
       xlink:href="#path1215"
       transform="translate(151.54052,42.32432)"
       id="use1487"
       style="stroke-width:0.942338" />
    <use
       x="0"
       y="0"
       inkscape:tiled-clone-of="#path1215"
       xlink:href="#path1215"
       transform="translate(151.54052,56.554049)"
       id="use1489"
       style="stroke-width:0.942338" />
    <use
       x="0"
       y="0"
       inkscape:tiled-clone-of="#path1215"
       xlink:href="#path1215"
       transform="translate(151.54052,70.783779)"
       id="use1491"
       style="stroke-width:0.942338" />
    <use
       x="0"
       y="0"
       inkscape:tiled-clone-of="#path1215"
       xlink:href="#path1215"
       transform="translate(151.54052,85.013508)"
       id="use1493"
       style="stroke-width:0.942338" />
    <use
       x="0"
       y="0"
       inkscape:tiled-clone-of="#path1215"
       xlink:href="#path1215"
       transform="translate(151.17566,99.6081)"
       id="use1497"
       style="stroke-width:0.942338" />
    <use
       x="0"
       y="0"
       inkscape:tiled-clone-of="#path1215"
       xlink:href="#path1215"
       transform="translate(151.17566,128.06757)"
       id="use1501"
       style="stroke-width:0.942338" />
    <use
       x="0"
       y="0"
       inkscape:tiled-clone-of="#path1215"
       xlink:href="#path1215"
       transform="translate(151.17566,142.2973)"
       id="use1503"
       style="stroke-width:0.942338" />
    <path
       style="fill:#0000ff;stroke-width:1"
       d="M 94.023909,100.53491 C 80.287402,93.689722 75.565194,78.110545 83.251403,64.995021 90.007269,53.467008 106.62651,48.528987 119.29678,54.284972 c 20.75035,9.426681 21.12389,36.267888 0.6503,46.728008 -8.25213,4.21608 -16.82033,4.05807 -25.923171,-0.47807 z"
       id="path1661"
       transform="scale(0.26458333)" />
    <path
       style="fill:#0000ff;stroke-width:1"
       d="m 152.22883,100.67754 c -11.82722,-5.893753 -17.6964,-17.568643 -14.38975,-28.623912 2.56604,-8.579152 6.0967,-12.769665 14.13294,-16.774294 9.23164,-4.600319 16.4379,-4.58609 25.74299,0.05083 15.35428,7.651363 19.46358,24.404324 9.3473,38.107536 -3.8239,5.179746 -15.291,10.67807 -22.2698,10.67807 -3.27334,0 -8.57629,-1.45123 -12.56368,-3.43823 z"
       id="path1663"
       transform="scale(0.26458333)" />
    <path
       style="fill:#0000ff;stroke-width:1"
       d="m 152.22883,154.4592 c -11.82722,-5.89376 -17.6964,-17.56865 -14.38975,-28.62392 2.56604,-8.57915 6.0967,-12.76966 14.13294,-16.77429 9.23164,-4.60032 16.4379,-4.58609 25.74299,0.0508 15.35428,7.65137 19.46358,24.40433 9.3473,38.10754 -3.8239,5.17974 -15.291,10.67806 -22.2698,10.67806 -3.27334,0 -8.57629,-1.45122 -12.56368,-3.43822 z"
       id="path1665"
       transform="scale(0.26458333)" />
    <path
       style="fill:#0000ff;stroke-width:1"
       d="m 96.531177,155.78493 c -10.69952,-4.8253 -16.548202,-13.33909 -16.548202,-24.08882 0,-8.32909 2.278918,-13.25202 8.774886,-18.95555 22.165429,-19.461503 57.460859,5.52751 43.248609,30.61983 -6.72986,11.88187 -23.58725,17.78584 -35.475293,12.42454 z"
       id="path1667"
       transform="scale(0.26458333)" />
    <path
       style="fill:#0000ff;stroke-width:1"
       d="m 96.531177,263.34824 c -10.69952,-4.8253 -16.548202,-13.33909 -16.548202,-24.08882 0,-8.32909 2.278918,-13.25202 8.774886,-18.95555 22.165429,-19.4615 57.460859,5.52751 43.248609,30.61984 -6.72986,11.88186 -23.58725,17.78584 -35.475293,12.42453 z"
       id="path1669"
       transform="scale(0.26458333)" />
    <path
       style="fill:#0000ff;stroke-width:1"
       d="m 152.22883,369.58582 c -11.82722,-5.89375 -17.6964,-17.56864 -14.38975,-28.62391 2.56604,-8.57916 6.0967,-12.76967 14.13294,-16.7743 9.23164,-4.60032 16.4379,-4.58609 25.74299,0.0508 15.35428,7.65137 19.46358,24.40433 9.3473,38.10754 -3.8239,5.17975 -15.291,10.67807 -22.2698,10.67807 -3.27334,0 -8.57629,-1.45123 -12.56368,-3.43823 z"
       id="path1671"
       transform="scale(0.26458333)" />
    <path
       style="fill:#0000ff;stroke-width:1"
       d="m 213.31318,371.62178 c -10.42009,-3.12768 -18.89011,-14.40158 -18.84912,-25.08887 0.0645,-16.83197 19.72356,-30.07622 36.44969,-24.5561 6.07668,2.00548 13.89093,8.53678 16.69021,13.95001 2.54838,4.92802 2.57731,16.81923 0.0527,21.65177 -6.24504,11.95395 -21.08606,18.02251 -34.34345,14.04319 z"
       id="path1673"
       transform="scale(0.26458333)" />
    <path
       style="fill:#0000ff;stroke-width:1"
       d="m 268.90828,370.91155 c -10.69952,-4.8253 -16.5482,-13.33909 -16.5482,-24.08882 0,-8.32909 2.27891,-13.25201 8.77488,-18.95555 22.16543,-19.4615 57.46086,5.52751 43.24861,30.61984 -6.72986,11.88186 -23.58725,17.78584 -35.47529,12.42453 z"
       id="path1675"
       transform="scale(0.26458333)" />
    <path
       style="fill:#550000;stroke-width:1"
       d="m 324.60594,369.58582 c -11.82723,-5.89375 -17.6964,-17.56864 -14.38976,-28.62391 2.56604,-8.57916 6.0967,-12.76967 14.13294,-16.7743 9.23164,-4.60032 16.4379,-4.58609 25.74299,0.0508 15.35428,7.65137 19.46358,24.40433 9.34731,38.10754 -3.82391,5.17975 -15.29101,10.67807 -22.26981,10.67807 -3.27333,0 -8.57629,-1.45123 -12.56367,-3.43823 z"
       id="path1677"
       transform="scale(0.26458333)" />
    <path
       style="fill:#550000;stroke-width:1"
       d="m 96.531177,317.1299 c -10.69952,-4.8253 -16.548202,-13.33909 -16.548202,-24.08883 0,-8.32908 2.278918,-13.25201 8.774886,-18.95555 22.165429,-19.4615 57.460859,5.52752 43.248609,30.61984 -6.72986,11.88187 -23.58725,17.78584 -35.475293,12.42454 z"
       id="path1748"
       transform="scale(0.26458333)" />
    <path
       style="fill:#550000;stroke-width:1"
       d="m 152.22883,262.02251 c -11.82722,-5.89376 -17.6964,-17.56865 -14.38975,-28.62391 2.56604,-8.57916 6.0967,-12.76967 14.13294,-16.7743 9.23164,-4.60032 16.4379,-4.58609 25.74299,0.0508 15.35428,7.65137 19.46358,24.40433 9.3473,38.10754 -3.8239,5.17975 -15.291,10.67807 -22.2698,10.67807 -3.27334,0 -8.57629,-1.45123 -12.56368,-3.43823 z"
       id="path1750"
       transform="scale(0.26458333)" />
    <path
       style="fill:#550000;stroke-width:1"
       d="m 96.531177,370.91155 c -10.69952,-4.8253 -16.548202,-13.33909 -16.548202,-24.08882 0,-8.32909 2.278918,-13.25201 8.774886,-18.95555 22.165429,-19.4615 57.460859,5.52751 43.248609,30.61984 -6.72986,11.88186 -23.58725,17.78584 -35.475293,12.42453 z"
       id="path1752"
       transform="scale(0.26458333)" />
    <path
       style="fill:#550000;stroke-width:1"
       d="m 96.531177,424.69321 c -10.69952,-4.8253 -16.548202,-13.33909 -16.548202,-24.08883 0,-8.32908 2.278918,-13.25201 8.774886,-18.95554 22.165429,-19.46151 57.460859,5.52751 43.248609,30.61983 -6.72986,11.88187 -23.58725,17.78584 -35.475293,12.42454 z"
       id="path1754"
       transform="scale(0.26458333)" />
    <path
       style="fill:#550000;stroke-width:1"
       d="m 95.15216,479.85388 c -10.69952,-4.8253 -16.548202,-13.33909 -16.548202,-24.08882 0,-8.32909 2.278918,-13.25202 8.774886,-18.95555 22.165426,-19.4615 57.460856,5.52751 43.248616,30.61983 -6.72987,11.88187 -23.58726,17.78584 -35.4753,12.42454 z"
       id="path1756"
       transform="scale(0.26458333)" />
    <path
       style="fill:#550000;stroke-width:1"
       d="m 150.84982,478.52815 c -11.82723,-5.89376 -17.6964,-17.56865 -14.38975,-28.62392 2.56603,-8.57915 6.09669,-12.76966 14.13293,-16.77429 9.23164,-4.60032 16.4379,-4.58609 25.74299,0.0508 15.35428,7.65137 19.46358,24.40433 9.34731,38.10754 -3.8239,5.17975 -15.29101,10.67807 -22.26981,10.67807 -3.27333,0 -8.57628,-1.45123 -12.56367,-3.43823 z"
       id="path1758"
       transform="scale(0.26458333)" />
    <path
       style="fill:#550000;stroke-width:1"
       d="m 211.93417,480.56411 c -10.4201,-3.12768 -18.89011,-14.40158 -18.84913,-25.08887 0.0645,-16.83197 19.72357,-30.07622 36.44969,-24.55611 6.07668,2.00549 13.89093,8.53679 16.69022,13.95002 2.54838,4.92802 2.5773,16.81923 0.0527,21.65177 -6.24503,11.95395 -21.08606,18.02251 -34.34345,14.04319 z"
       id="path1760"
       transform="scale(0.26458333)" />
    <path
       style="fill:#550000;stroke-width:1"
       d="m 267.52926,479.85388 c -10.69952,-4.8253 -16.5482,-13.33909 -16.5482,-24.08882 0,-8.32909 2.27892,-13.25202 8.77489,-18.95555 22.16542,-19.4615 57.46085,5.52751 43.24861,30.61983 -6.72987,11.88187 -23.58726,17.78584 -35.4753,12.42454 z"
       id="path1762"
       transform="scale(0.26458333)" />
    <path
       style="fill:#550000;stroke-width:1"
       d="m 267.52926,533.63554 c -10.69952,-4.8253 -16.5482,-13.33909 -16.5482,-24.08883 0,-8.32908 2.27892,-13.25201 8.77489,-18.95555 22.16542,-19.4615 57.46085,5.52752 43.24861,30.61984 -6.72987,11.88187 -23.58726,17.78584 -35.4753,12.42454 z"
       id="path1764"
       transform="scale(0.26458333)" />
    <path
       style="fill:#550000;stroke-width:1"
       d="m 267.52926,587.41719 c -10.69952,-4.8253 -16.5482,-13.33909 -16.5482,-24.08882 0,-8.32909 2.27892,-13.25201 8.77489,-18.95555 22.16542,-19.4615 57.46085,5.52751 43.24861,30.61984 -6.72987,11.88186 -23.58726,17.78584 -35.4753,12.42453 z"
       id="path1766"
       transform="scale(0.26458333)" />
    <path
       style="fill:#550000;stroke-width:1"
       d="m 267.52926,641.19885 c -10.69952,-4.8253 -16.5482,-13.33909 -16.5482,-24.08883 0,-8.32908 2.27892,-13.25201 8.77489,-18.95554 22.16542,-19.46151 57.46085,5.52751 43.24861,30.61983 -6.72987,11.88187 -23.58726,17.78584 -35.4753,12.42454 z"
       id="path1768"
       transform="scale(0.26458333)" />
    <path
       style="fill:#550000;stroke-width:1"
       d="m 323.22692,639.87311 c -11.82723,-5.89375 -17.6964,-17.56864 -14.38975,-28.62391 2.56604,-8.57915 6.09669,-12.76966 14.13293,-16.77429 9.23164,-4.60032 16.4379,-4.58609 25.74299,0.0508 15.35429,7.65136 19.46358,24.40432 9.34731,38.10754 -3.8239,5.17974 -15.29101,10.67806 -22.26981,10.67806 -3.27333,0 -8.57628,-1.45122 -12.56367,-3.43823 z"
       id="path1770"
       transform="scale(0.26458333)" />
    <path
       style="fill:#550000;stroke-width:1"
       d="m 384.31127,641.90908 c -10.42009,-3.12768 -18.89011,-14.40158 -18.84913,-25.08887 0.0645,-16.83197 19.72357,-30.07623 36.44969,-24.55611 6.07668,2.00549 13.89093,8.53679 16.69022,13.95001 2.54838,4.92803 2.5773,16.81924 0.0527,21.65178 -6.24503,11.95394 -21.08606,18.02251 -34.34345,14.04319 z"
       id="path1772"
       transform="scale(0.26458333)" />
    <path
       style="fill:#550000;stroke-width:1"
       d="m 497.39065,640.53006 c -6.62193,-1.98763 -13.51374,-8.31799 -16.81639,-15.44643 -3.15002,-6.79898 -3.1677,-6.81132 -4.04404,-2.82135 -1.97678,9.00019 -15.25547,18.20061 -26.35522,18.26074 -6.96079,0.0377 -18.37954,-5.48038 -22.29236,-10.77276 -4.93602,-6.67632 -6.61768,-14.47008 -4.58708,-21.25909 2.56604,-8.57915 6.0967,-12.76967 14.13294,-16.7743 9.19825,-4.58368 16.44273,-4.58368 25.64098,0 7.40446,3.68981 12.24177,9.03018 13.94365,15.39376 0.97828,3.65789 1.00052,3.64557 4.34729,-2.40908 8.91012,-16.11928 29.86785,-19.93409 43.5442,-7.92609 6.49597,5.70353 8.77489,10.62646 8.77489,18.95555 0,7.91302 -2.07816,12.75787 -7.80624,18.19882 -7.45904,7.08514 -18.41156,9.62315 -28.48262,6.60023 z"
       id="path1774"
       transform="scale(0.26458333)" />
    <path
       style="fill:#550000;stroke-width:1"
       d="m 445.97129,639.13394 c -2.35274,-0.49876 -6.98816,-2.40201 -10.30095,-4.22945 -15.8075,-8.71992 -16.35068,-30.73865 -1.00876,-40.89146 4.92846,-3.2615 7.13321,-3.79383 15.71266,-3.79383 8.86373,0 10.63682,0.46265 15.85492,4.13705 3.30782,2.32924 7.18626,6.74522 8.87557,10.1057 l 3.00045,5.96865 4.99798,-6.95683 c 6.89124,-9.5921 13.93326,-13.02439 25.24436,-12.30415 7.12651,0.45378 9.60053,1.29684 13.81458,4.70756 8.77414,7.10149 10.59806,10.51834 10.59806,19.85383 0,9.35357 -1.82001,12.74916 -10.67477,19.91592 -4.80704,3.89066 -6.03525,4.21687 -15.87681,4.21687 -9.56953,0 -11.18984,-0.399 -15.75229,-3.87894 -2.79706,-2.13342 -6.89839,-7.05309 -9.11406,-10.9326 l -4.02851,-7.05365 -2.32551,5.81202 c -3.95986,9.89666 -18.46996,17.55918 -29.01692,15.32331 z"
       id="path1776"
       transform="scale(0.26458333)" />
    <path
       style="fill:#550000;stroke-width:1"
       d="m 497.39065,586.7484 c -10.4201,-3.12768 -18.89011,-14.40158 -18.84913,-25.08887 0.0645,-16.83197 19.72357,-30.07622 36.44969,-24.5561 6.07668,2.00548 13.89093,8.53679 16.69022,13.95001 2.54838,4.92803 2.5773,16.81923 0.0527,21.65177 -6.24503,11.95395 -21.08606,18.02251 -34.34345,14.04319 z"
       id="path1778"
       transform="scale(0.26458333)" />
    <path
       style="fill:#550000;stroke-width:1"
       d="m 497.39065,532.96675 c -10.4201,-3.12768 -18.89011,-14.40158 -18.84913,-25.08887 0.0645,-16.83197 19.72357,-30.07623 36.44969,-24.55611 6.07668,2.00549 13.89093,8.53679 16.69022,13.95002 2.54838,4.92802 2.5773,16.81923 0.0527,21.65177 -6.24503,11.95395 -21.08606,18.02251 -34.34345,14.04319 z"
       id="path1780"
       transform="scale(0.26458333)" />
    <path
       style="fill:#550000;stroke-width:1"
       d="m 497.39065,479.18509 c -10.4201,-3.12768 -18.89011,-14.40158 -18.84913,-25.08887 0.0645,-16.83197 19.72357,-30.07622 36.44969,-24.5561 6.07668,2.00548 13.89093,8.53679 16.69022,13.95001 2.54838,4.92802 2.5773,16.81923 0.0527,21.65177 -6.24503,11.95395 -21.08606,18.02251 -34.34345,14.04319 z"
       id="path1782"
       transform="scale(0.26458333)" />
    <path
       style="fill:#550000;stroke-width:1"
       d="m 671.14677,424.02442 c -10.4201,-3.12768 -18.89012,-14.40158 -18.84913,-25.08887 0.0645,-16.83197 19.72357,-30.07622 36.44969,-24.5561 6.07668,2.00548 13.89093,8.53678 16.69021,13.95001 2.54838,4.92802 2.57731,16.81923 0.0527,21.65177 -6.24504,11.95395 -21.08606,18.02251 -34.34345,14.04319 z"
       id="path1786"
       transform="scale(0.26458333)" />
    <path
       style="fill:#550000;stroke-width:1"
       d="m 671.14677,370.24277 c -10.4201,-3.12769 -18.89012,-14.40159 -18.84913,-25.08888 0.0645,-16.83197 19.72357,-30.07622 36.44969,-24.5561 6.07668,2.00548 13.89093,8.53679 16.69021,13.95001 2.54838,4.92803 2.57731,16.81923 0.0527,21.65177 -6.24504,11.95395 -21.08606,18.02252 -34.34345,14.0432 z"
       id="path1788"
       transform="scale(0.26458333)" />
    <path
       style="fill:#550000;stroke-width:1"
       d="m 671.14677,316.46111 c -10.4201,-3.12768 -18.89012,-14.40158 -18.84913,-25.08887 0.0645,-16.83197 19.72357,-30.07623 36.44969,-24.55611 6.07668,2.00549 13.89093,8.53679 16.69021,13.95002 2.54838,4.92802 2.57731,16.81923 0.0527,21.65177 -6.24504,11.95395 -21.08606,18.02251 -34.34345,14.04319 z"
       id="path1790"
       transform="scale(0.26458333)" />
    <path
       style="fill:#550000;stroke-width:1"
       d="m 671.14677,262.67945 c -10.4201,-3.12768 -18.89012,-14.40158 -18.84913,-25.08887 0.0645,-16.83197 19.72357,-30.07622 36.44969,-24.5561 6.07668,2.00548 13.89093,8.53679 16.69021,13.95001 2.54838,4.92802 2.57731,16.81923 0.0527,21.65177 -6.24504,11.95395 -21.08606,18.02251 -34.34345,14.04319 z"
       id="path1792"
       transform="scale(0.26458333)" />
    <path
       style="fill:#550000;stroke-width:1"
       d="m 610.06242,260.64349 c -11.82723,-5.89375 -17.6964,-17.56864 -14.38976,-28.62391 2.56604,-8.57915 6.0967,-12.76967 14.13294,-16.7743 9.23164,-4.60032 16.4379,-4.58609 25.74299,0.0508 15.35428,7.65136 19.46358,24.40432 9.34731,38.10753 -3.82391,5.17975 -15.29101,10.67807 -22.26981,10.67807 -3.27333,0 -8.57629,-1.45123 -12.56367,-3.43823 z"
       id="path1794"
       transform="scale(0.26458333)" />
    <path
       style="fill:#550000;stroke-width:1"
       d="m 554.36476,261.96922 c -10.69952,-4.8253 -16.5482,-13.33908 -16.5482,-24.08882 0,-8.32908 2.27891,-13.25201 8.77488,-18.95555 22.16543,-19.4615 57.46086,5.52752 43.24861,30.61984 -6.72986,11.88186 -23.58725,17.78584 -35.47529,12.42453 z"
       id="path1796"
       transform="scale(0.26458333)" />
    <path
       style="fill:#550000;stroke-width:1"
       d="m 498.76966,262.67945 c -10.42009,-3.12768 -18.89011,-14.40158 -18.84912,-25.08887 0.0645,-16.83197 19.72356,-30.07622 36.44969,-24.5561 6.07668,2.00548 13.89093,8.53679 16.69021,13.95001 2.54838,4.92802 2.57731,16.81923 0.0527,21.65177 -6.24504,11.95395 -21.08606,18.02251 -34.34345,14.04319 z"
       id="path1798"
       transform="scale(0.26458333)" />
    <path
       style="fill:#550000;stroke-width:1"
       d="m 498.76966,208.8978 c -10.42009,-3.12768 -18.89011,-14.40158 -18.84912,-25.08887 0.0645,-16.83197 19.72356,-30.07623 36.44969,-24.55611 6.07668,2.00549 13.89093,8.53679 16.69021,13.95001 2.54838,4.92803 2.57731,16.81924 0.0527,21.65178 -6.24504,11.95395 -21.08606,18.02251 -34.34345,14.04319 z"
       id="path1802"
       transform="scale(0.26458333)" />
    <path
       style="fill:#550000;stroke-width:1"
       d="m 498.76966,155.11614 c -10.42009,-3.12768 -18.89011,-14.40158 -18.84912,-25.08887 0.0645,-16.83197 19.72356,-30.076222 36.44969,-24.5561 6.07668,2.00548 13.89093,8.53678 16.69021,13.95001 2.54838,4.92802 2.57731,16.81923 0.0527,21.65177 -6.24504,11.95395 -21.08606,18.02251 -34.34345,14.04319 z"
       id="path1804"
       transform="scale(0.26458333)" />
    <path
       style="fill:#550000;stroke-width:1"
       d="m 498.76966,101.33449 c -10.42009,-3.127685 -18.89011,-14.401585 -18.84912,-25.088874 0.0645,-16.83197 19.72356,-30.076224 36.44969,-24.556105 6.07668,2.005485 13.89093,8.536788 16.69021,13.950012 2.54838,4.928025 2.57731,16.819233 0.0527,21.651772 -6.24504,11.95395 -21.08606,18.022515 -34.34345,14.043195 z"
       id="path1806"
       transform="scale(0.26458333)" />
    <path
       style="fill:#550000;stroke-width:1"
       d="M 385.69029,102.7135 C 370.3172,98.099137 362.36035,79.659991 369.95565,66.250162 c 11.3644,-20.064348 40.21702,-18.616332 50.97292,2.558161 l 2.02908,3.994534 0.98146,-3.910421 c 1.61564,-6.437248 5.9184,-11.219335 13.48939,-14.992119 9.23164,-4.600319 16.4379,-4.58609 25.74299,0.05083 15.35428,7.651363 19.46358,24.404325 9.3473,38.107536 -3.82494,5.181152 -15.29828,10.685157 -22.19581,10.647787 -11.17168,-0.0605 -24.37952,-9.265466 -26.38296,-18.387072 l -0.90794,-4.13381 -1.79643,5.225474 c -4.75187,13.822269 -20.91991,21.692398 -35.54536,17.302438 z"
       id="path1808"
       transform="scale(0.26458333)" />
    <path
       style="fill:#550000;stroke-width:1"
       d="m 382.67717,100.78219 c -15.61631,-6.970462 -19.66589,-29.105338 -7.37087,-40.288896 11.99014,-10.906244 30.03596,-9.729463 40.59783,2.647412 2.20357,2.582238 4.68871,5.86726 5.52253,7.300049 1.3565,2.330911 1.81534,1.928471 4.35993,-3.824008 1.92989,-4.362829 4.73431,-7.680098 8.72588,-10.321593 5.07548,-3.358797 7.23318,-3.892515 15.73652,-3.892515 8.4428,0 10.67581,0.543494 15.5874,3.793834 15.34193,10.152808 14.79875,32.171543 -1.00876,40.89146 -3.31278,1.827436 -7.94821,3.730687 -10.30094,4.229447 -10.58027,2.24293 -25.02136,-5.410983 -29.09918,-15.422845 l -2.40777,-5.91156 -2.40191,5.55385 c -2.5585,5.915947 -10.53441,13.789892 -16.11936,15.913285 -4.88045,1.85554 -16.99887,1.48462 -21.8213,-0.66792 z"
       id="path1810"
       transform="scale(0.26458333)" />
    <path
       style="fill:#550000;stroke-width:1"
       d="m 324.60594,100.67754 c -11.82723,-5.893753 -17.6964,-17.568643 -14.38976,-28.623912 2.56604,-8.579152 6.0967,-12.769665 14.13294,-16.774294 9.23164,-4.600319 16.4379,-4.58609 25.74299,0.05083 15.35428,7.651363 19.46358,24.404324 9.34731,38.107536 -3.82391,5.179746 -15.29101,10.67807 -22.26981,10.67807 -3.27333,0 -8.57629,-1.45123 -12.56367,-3.43823 z"
       id="path1814"
       transform="scale(0.26458333)" />
    <path
       style="fill:#550000;stroke-width:1"
       d="m 268.90828,102.00327 c -10.69952,-4.825297 -16.5482,-13.339085 -16.5482,-24.08882 0,-8.329084 2.27891,-13.252012 8.77488,-18.955548 22.16543,-19.461501 57.46086,5.527514 43.24861,30.619836 -6.72986,11.881862 -23.58725,17.785842 -35.47529,12.424532 z"
       id="path1816"
       transform="scale(0.26458333)" />
    <path
       style="fill:#550000;stroke-width:1"
       d="m 268.90828,155.78493 c -10.69952,-4.8253 -16.5482,-13.33909 -16.5482,-24.08882 0,-8.32909 2.27891,-13.25202 8.77488,-18.95555 22.16543,-19.461503 57.46086,5.52751 43.24861,30.61983 -6.72986,11.88187 -23.58725,17.78584 -35.47529,12.42454 z"
       id="path1818"
       transform="scale(0.26458333)" />
    <path
       style="fill:#550000;stroke-width:1"
       d="m 268.90828,209.56659 c -10.69952,-4.82531 -16.5482,-13.33909 -16.5482,-24.08883 0,-8.32908 2.27891,-13.25201 8.77488,-18.95555 22.16543,-19.4615 57.46086,5.52752 43.24861,30.61984 -6.72986,11.88186 -23.58725,17.78584 -35.47529,12.42454 z"
       id="path1820"
       transform="scale(0.26458333)" />
    <path
       style="fill:#550000;stroke-width:1"
       d="m 268.90828,263.34824 c -10.69952,-4.8253 -16.5482,-13.33909 -16.5482,-24.08882 0,-8.32909 2.27891,-13.25202 8.77488,-18.95555 22.16543,-19.4615 57.46086,5.52751 43.24861,30.61984 -6.72986,11.88186 -23.58725,17.78584 -35.47529,12.42453 z"
       id="path1822"
       transform="scale(0.26458333)" />
    <path
       style="fill:#0000ff;stroke-width:1"
       d="m 213.31318,264.05847 c -10.42009,-3.12768 -18.89011,-14.40158 -18.84912,-25.08887 0.0645,-16.83197 19.72356,-30.07622 36.44969,-24.5561 6.07668,2.00548 13.89093,8.53678 16.69021,13.95001 2.54838,4.92802 2.57731,16.81923 0.0527,21.65177 -6.24504,11.95395 -21.08606,18.02251 -34.34345,14.04319 z"
       id="path1824"
       transform="scale(0.26458333)" />
    <path
       style="fill:#0000ff;stroke-width:1"
       d="m 332.00267,371.41437 c -22.88919,-4.88818 -29.28122,-32.44914 -10.42046,-44.9306 4.91159,-3.25034 7.1446,-3.79384 15.5874,-3.79384 8.4428,0 10.67581,0.5435 15.58741,3.79384 15.30198,10.12637 14.79838,32.17174 -0.93316,40.84975 -7.7371,4.26803 -13.44346,5.44287 -19.82119,4.08085 z"
       id="path1826"
       transform="scale(0.26458333)" />
    <path
       style="fill:#550000;stroke-width:1"
       d="m 329.08479,369.68911 c -6.00933,-2.21456 -12.58412,-7.94336 -15.48158,-13.48954 -2.62168,-5.01829 -2.45484,-14.09204 0.3685,-20.0418 7.42187,-15.64044 34.44167,-17.33617 44.80128,-2.81168 2.57953,3.61658 3.21892,6.29352 3.21892,13.47664 0,10.88426 -3.18061,16.21682 -12.30792,20.63528 -8.14275,3.94184 -14.18203,4.59595 -20.5992,2.2311 z"
       id="path1828"
       transform="scale(0.26458333)" />
    <path
       style="fill:#ffff00;stroke-width:1"
       d="m 210.30314,261.90921 c -10.09426,-5.26329 -15.0835,-14.0079 -14.1836,-24.85951 1.08057,-13.03027 12.29916,-22.61259 26.4739,-22.61259 8.32711,0 14.58525,2.95237 20.77063,9.79885 4.57901,5.06842 4.85896,5.93144 4.85896,14.97945 0,8.86044 -0.34485,9.99392 -4.46998,14.69218 -2.45849,2.80006 -6.95753,6.22109 -9.99787,7.60229 -6.80636,3.09206 -17.92468,3.28138 -23.45204,0.39933 z"
       id="path1899"
       transform="scale(0.26458333)" />
    <path
       style="fill:#ffff00;stroke-width:1"
       d="m 385.69029,156.49516 c -10.4201,-3.12768 -18.89012,-14.40158 -18.84913,-25.08887 0.0645,-16.83197 19.72357,-30.07623 36.44969,-24.55611 6.07668,2.00549 13.89093,8.53679 16.69021,13.95002 2.54838,4.92802 2.57731,16.81923 0.0527,21.65177 -6.24504,11.95395 -21.08606,18.02251 -34.34345,14.04319 z"
       id="path1970"
       transform="scale(0.26458333)" />
    <path
       style="fill:#ffff00;stroke-width:1"
       d="m 385.69029,210.27681 c -10.4201,-3.12768 -18.89012,-14.40158 -18.84913,-25.08887 0.0645,-16.83197 19.72357,-30.07622 36.44969,-24.5561 6.07668,2.00548 13.89093,8.53679 16.69021,13.95001 2.54838,4.92803 2.57731,16.81923 0.0527,21.65177 -6.24504,11.95395 -21.08606,18.02251 -34.34345,14.04319 z"
       id="path1972"
       transform="scale(0.26458333)" />
    <path
       style="fill:#ffff00;stroke-width:1"
       d="m 385.69029,264.05847 c -10.4201,-3.12768 -18.89012,-14.40158 -18.84913,-25.08887 0.0645,-16.83197 19.72357,-30.07622 36.44969,-24.5561 6.07668,2.00548 13.89093,8.53678 16.69021,13.95001 2.54838,4.92802 2.57731,16.81923 0.0527,21.65177 -6.24504,11.95395 -21.08606,18.02251 -34.34345,14.04319 z"
       id="path1974"
       transform="scale(0.26458333)" />
    <path
       style="fill:#ffff00;stroke-width:1"
       d="m 385.69029,317.84013 c -10.4201,-3.12769 -18.89012,-14.40159 -18.84913,-25.08887 0.0645,-16.83197 19.72357,-30.07623 36.44969,-24.55611 6.07668,2.00549 13.89093,8.53679 16.69021,13.95001 2.54838,4.92803 2.57731,16.81924 0.0527,21.65177 -6.24504,11.95395 -21.08606,18.02252 -34.34345,14.0432 z"
       id="path1980"
       transform="scale(0.26458333)" />
    <path
       style="fill:#ffff00;stroke-width:1"
       d="m 610.06242,99.298524 c -11.82723,-5.893753 -17.6964,-17.568643 -14.38976,-28.623912 2.56604,-8.579153 6.0967,-12.769665 14.13294,-16.774295 9.23164,-4.600319 16.4379,-4.58609 25.74299,0.05083 15.35428,7.651363 19.46358,24.404325 9.34731,38.107536 -3.82391,5.179746 -15.29101,10.678067 -22.26981,10.678067 -3.27333,0 -8.57629,-1.45123 -12.56367,-3.438229 z"
       id="path1982"
       transform="scale(0.26458333)" />
    <path
       style="fill:#ffff00;stroke-width:1"
       d="m 671.14677,101.33449 c -10.4201,-3.127685 -18.89012,-14.401585 -18.84913,-25.088874 0.0645,-16.83197 19.72357,-30.076224 36.44969,-24.556105 6.07668,2.005485 13.89093,8.536788 16.69021,13.950012 2.54838,4.928025 2.57731,16.819233 0.0527,21.651772 -6.24504,11.95395 -21.08606,18.022515 -34.34345,14.043195 z"
       id="path1984"
       transform="scale(0.26458333)" />
    <path
       style="fill:#ffff00;stroke-width:1"
       d="m 671.14677,155.11614 c -10.4201,-3.12768 -18.89012,-14.40158 -18.84913,-25.08887 0.0645,-16.83197 19.72357,-30.076222 36.44969,-24.5561 6.07668,2.00548 13.89093,8.53678 16.69021,13.95001 2.54838,4.92802 2.57731,16.81923 0.0527,21.65177 -6.24504,11.95395 -21.08606,18.02251 -34.34345,14.04319 z"
       id="path1986"
       transform="scale(0.26458333)" />
    <path
       style="fill:#ffff00;stroke-width:1"
       d="m 610.06242,153.08018 c -11.82723,-5.89375 -17.6964,-17.56864 -14.38976,-28.62391 2.56604,-8.57916 6.0967,-12.76967 14.13294,-16.7743 9.23164,-4.60032 16.4379,-4.58609 25.74299,0.0508 15.35428,7.65136 19.46358,24.40432 9.34731,38.10753 -3.82391,5.17975 -15.29101,10.67807 -22.26981,10.67807 -3.27333,0 -8.57629,-1.45123 -12.56367,-3.43823 z"
       id="path1988"
       transform="scale(0.26458333)" />
    <path
       style="fill:#550000;stroke-width:1"
       d="m 208.76737,260.07599 c -7.74896,-4.72518 -10.87846,-10.71365 -10.87846,-20.81657 0,-7.18313 0.63939,-9.86006 3.21892,-13.47664 9.406,-13.18748 30.36131,-13.59152 41.59074,-0.80191 3.74978,4.27076 4.14544,5.62806 4.14544,14.22073 0,8.24204 -0.47926,10.06889 -3.62101,13.80265 -7.93764,9.43335 -24.88018,12.91067 -34.45563,7.07174 z"
       id="path1990"
       transform="scale(0.26458333)" />
    <path
       style="fill:#0000ff;stroke-width:1"
       d="m 326.68954,367.52045 c -2.7302,-1.44302 -6.91896,-4.85026 -9.30836,-7.57163 -3.7913,-4.31806 -4.34371,-5.9513 -4.33921,-12.82932 0.009,-14.03375 8.99999,-22.51973 24.00225,-22.65453 14.49303,-0.13023 24.24517,8.58334 24.25089,21.66825 0.004,10.20594 -3.39682,15.82772 -12.30638,20.3405 -8.724,4.41879 -15.33234,4.72899 -22.29919,1.04673 z"
       id="path1992"
       transform="scale(0.26458333)" />
    <path
       style="fill:#ffff00;stroke-width:1"
       d="m 495.75654,99.189104 c -9.43765,-4.908434 -14.70951,-13.311089 -14.70951,-23.445049 0,-7.921911 4.34381,-14.928382 12.43731,-20.061127 5.14928,-3.265581 7.7652,-3.969798 14.74643,-3.969798 7.17105,0 9.34033,0.618347 13.99285,3.988618 9.6226,6.970576 11.45589,10.333716 11.45589,21.015685 0,8.890126 -0.29424,9.788857 -4.85896,14.84146 -2.67243,2.958059 -6.95498,6.372914 -9.51678,7.588566 -5.92516,2.811671 -18.1795,2.833351 -23.54723,0.04165 z"
       id="path1994"
       transform="scale(0.26458333)" />
    <path
       style="fill:#008000;stroke-width:1"
       d="m 95.15216,587.41719 c -10.69952,-4.8253 -16.548202,-13.33909 -16.548202,-24.08882 0,-8.32909 2.278918,-13.25201 8.774886,-18.95555 22.165426,-19.4615 57.460856,5.52751 43.248616,30.61984 -6.72987,11.88186 -23.58726,17.78584 -35.4753,12.42453 z"
       id="path1996"
       transform="scale(0.26458333)" />
    <path
       style="fill:#008000;stroke-width:1"
       d="m 150.84982,586.09146 c -11.82723,-5.89375 -17.6964,-17.56864 -14.38975,-28.62391 2.56603,-8.57916 6.09669,-12.76967 14.13293,-16.7743 9.23164,-4.60032 16.4379,-4.58609 25.74299,0.0508 15.35428,7.65137 19.46358,24.40433 9.34731,38.10754 -3.8239,5.17975 -15.29101,10.67807 -22.26981,10.67807 -3.27333,0 -8.57628,-1.45123 -12.56367,-3.43823 z"
       id="path2067"
       transform="scale(0.26458333)" />
    <path
       style="fill:#008000;stroke-width:1"
       d="m 150.84982,639.87311 c -11.82723,-5.89375 -17.6964,-17.56864 -14.38975,-28.62391 2.56603,-8.57915 6.09669,-12.76966 14.13293,-16.77429 9.23164,-4.60032 16.4379,-4.58609 25.74299,0.0508 15.35428,7.65136 19.46358,24.40432 9.34731,38.10754 -3.8239,5.17974 -15.29101,10.67806 -22.26981,10.67806 -3.27333,0 -8.57628,-1.45122 -12.56367,-3.43823 z"
       id="path2069"
       transform="scale(0.26458333)" />
    <path
       style="fill:#008000;stroke-width:1"
       d="m 95.15216,641.19885 c -10.69952,-4.8253 -16.548202,-13.33909 -16.548202,-24.08883 0,-8.32908 2.278918,-13.25201 8.774886,-18.95554 22.165426,-19.46151 57.460856,5.52751 43.248616,30.61983 -6.72987,11.88187 -23.58726,17.78584 -35.4753,12.42454 z"
       id="path2071"
       transform="scale(0.26458333)" />
    <path
       style="fill:#008000;stroke-width:1"
       d="m 608.6834,638.4941 c -11.82723,-5.89376 -17.6964,-17.56865 -14.38975,-28.62391 2.56604,-8.57916 6.09669,-12.76967 14.13293,-16.7743 9.23164,-4.60032 16.4379,-4.58609 25.74299,0.0508 15.35429,7.65137 19.46358,24.40433 9.34731,38.10754 -3.8239,5.17975 -15.29101,10.67807 -22.26981,10.67807 -3.27333,0 -8.57628,-1.45123 -12.56367,-3.43823 z"
       id="path2073"
       transform="scale(0.26458333)" />
    <path
       style="fill:#ff0000;stroke-width:1"
       d="m 266.83975,640.3268 c -4.53437,-2.5017 -10.44742,-8.46612 -12.73126,-12.84187 -3.09756,-5.93479 -2.79919,-17.96288 0.55709,-22.45825 5.77438,-7.73416 12.43649,-11.78711 20.47039,-12.45335 30.22435,-2.50644 42.13822,33.53477 15.36901,46.49352 -6.5307,3.16146 -19.01407,3.82608 -23.66523,1.25995 z"
       id="path2075"
       transform="scale(0.26458333)" />
    <path
       style="fill:#ff0000;stroke-width:1"
       d="m 608.6834,584.71244 c -11.82723,-5.89375 -17.6964,-17.56864 -14.38975,-28.62391 2.56604,-8.57915 6.09669,-12.76967 14.13293,-16.7743 9.23164,-4.60031 16.4379,-4.58608 25.74299,0.0508 15.35429,7.65136 19.46358,24.40432 9.34731,38.10753 -3.8239,5.17975 -15.29101,10.67807 -22.26981,10.67807 -3.27333,0 -8.57628,-1.45123 -12.56367,-3.43823 z"
       id="path2146"
       transform="scale(0.26458333)" />
    <path
       style="fill:#ff0000;stroke-width:1"
       d="m 617.00563,640.5209 c -12.31723,-2.61347 -22.64938,-13.60016 -22.64938,-24.08422 0,-19.67963 22.13116,-31.66814 40.25286,-21.80508 12.63082,6.87455 16.76048,19.62244 10.426,32.1841 -4.64953,9.2203 -18.12143,15.80748 -28.02948,13.7052 z"
       id="path2148"
       transform="scale(0.26458333)" />
    <path
       style="fill:#ff0000;stroke-width:1"
       d="m 669.76775,640.53006 c -10.42009,-3.12768 -18.89011,-14.40158 -18.84913,-25.08887 0.0645,-16.83197 19.72357,-30.07622 36.44969,-24.55611 6.07668,2.00549 13.89093,8.53679 16.69022,13.95002 2.54838,4.92802 2.5773,16.81923 0.0527,21.65177 -6.24503,11.95395 -21.08606,18.02251 -34.34345,14.04319 z"
       id="path2150"
       transform="scale(0.26458333)" />
    <path
       style="fill:#ff0000;stroke-width:1"
       d="m 669.76775,586.7484 c -10.42009,-3.12768 -18.89011,-14.40158 -18.84913,-25.08887 0.0645,-16.83197 19.72357,-30.07622 36.44969,-24.5561 6.07668,2.00548 13.89093,8.53679 16.69022,13.95001 2.54838,4.92803 2.5773,16.81923 0.0527,21.65177 -6.24503,11.95395 -21.08606,18.02251 -34.34345,14.04319 z"
       id="path2152"
       transform="scale(0.26458333)" />
    <path
       style="fill:#ff0000;stroke-width:1"
       d="m 437.68531,368.2068 c -11.82722,-5.89375 -17.6964,-17.56864 -14.38975,-28.62391 2.56604,-8.57915 6.0967,-12.76967 14.13294,-16.77429 9.23164,-4.60032 16.4379,-4.58609 25.74299,0.0508 15.35428,7.65136 19.46358,24.40432 9.3473,38.10753 -3.8239,5.17975 -15.291,10.67807 -22.2698,10.67807 -3.27334,0 -8.57629,-1.45123 -12.56368,-3.43823 z"
       id="path2158"
       transform="scale(0.26458333)" />
    <path
       style="fill:#ff0000;stroke-width:1"
       d="m 498.76966,370.24277 c -10.42009,-3.12769 -18.89011,-14.40159 -18.84912,-25.08888 0.0645,-16.83197 19.72356,-30.07622 36.44969,-24.5561 6.07668,2.00548 13.89093,8.53679 16.69021,13.95001 2.54838,4.92803 2.57731,16.81923 0.0527,21.65177 -6.24504,11.95395 -21.08606,18.02252 -34.34345,14.0432 z"
       id="path2160"
       transform="scale(0.26458333)" />
    <path
       style="fill:#ff0000;stroke-width:1"
       d="m 554.36476,369.53254 c -10.69952,-4.82531 -16.5482,-13.33909 -16.5482,-24.08883 0,-8.32908 2.27891,-13.25201 8.77488,-18.95555 22.16543,-19.4615 57.46086,5.52752 43.24861,30.61984 -6.72986,11.88186 -23.58725,17.78584 -35.47529,12.42454 z"
       id="path2166"
       transform="scale(0.26458333)" />
    <path
       style="fill:#ff0000;stroke-width:1"
       d="m 610.06242,368.2068 c -11.82723,-5.89375 -17.6964,-17.56864 -14.38976,-28.62391 2.56604,-8.57915 6.0967,-12.76967 14.13294,-16.77429 9.23164,-4.60032 16.4379,-4.58609 25.74299,0.0508 15.35428,7.65136 19.46358,24.40432 9.34731,38.10753 -3.82391,5.17975 -15.29101,10.67807 -22.26981,10.67807 -3.27333,0 -8.57629,-1.45123 -12.56367,-3.43823 z"
       id="path2168"
       transform="scale(0.26458333)" />
    <path
       style="fill:#008000;stroke-width:1"
       d="m 260.48154,633.76746 c -7.38029,-7.65692 -9.62957,-15.49395 -6.85754,-23.89328 1.58664,-4.80759 8.12024,-11.9199 13.46985,-14.66295 4.44597,-2.27971 17.9241,-1.88199 23.34156,0.68877 13.59872,6.45301 18.31663,24.27162 9.27241,35.02007 -5.63899,6.70155 -12.76444,9.63324 -23.41353,9.63324 h -9.27206 z"
       id="path2170"
       transform="scale(0.26458333)" />
    <path
       style="fill:#008000;stroke-width:1"
       d="m 382.93225,588.12742 c -10.42009,-3.12768 -18.89011,-14.40158 -18.84913,-25.08887 0.0645,-16.83197 19.72357,-30.07622 36.4497,-24.5561 6.07668,2.00548 13.89092,8.53678 16.69021,13.95001 2.54838,4.92802 2.57731,16.81923 0.0527,21.65177 -6.24503,11.95395 -21.08605,18.02251 -34.34344,14.04319 z"
       id="path2172"
       transform="scale(0.26458333)" />
    <path
       style="fill:#008000;stroke-width:1"
       d="m 384.31127,534.34577 c -10.42009,-3.12769 -18.89011,-14.40159 -18.84913,-25.08887 0.0645,-16.83197 19.72357,-30.07623 36.44969,-24.55611 6.07668,2.00549 13.89093,8.53679 16.69022,13.95001 2.54838,4.92803 2.5773,16.81923 0.0527,21.65177 -6.24503,11.95395 -21.08606,18.02252 -34.34345,14.0432 z"
       id="path2174"
       transform="scale(0.26458333)" />
    <path
       style="fill:#008000;stroke-width:1"
       d="m 384.31127,480.56411 c -10.42009,-3.12768 -18.89011,-14.40158 -18.84913,-25.08887 0.0645,-16.83197 19.72357,-30.07622 36.44969,-24.55611 6.07668,2.00549 13.89093,8.53679 16.69022,13.95002 2.54838,4.92802 2.5773,16.81923 0.0527,21.65177 -6.24503,11.95395 -21.08606,18.02251 -34.34345,14.04319 z"
       id="path2176"
       transform="scale(0.26458333)" />
    <path
       style="fill:#008000;stroke-width:1"
       d="m 381.29815,478.49257 c -10.12388,-5.08462 -16.58362,-17.65463 -14.35488,-27.93317 2.3488,-10.83223 14.282,-19.61665 26.64825,-19.61665 8.32711,0 14.58525,2.95237 20.77063,9.79885 4.57902,5.06842 4.85896,5.93144 4.85896,14.97945 0,8.80656 -0.36011,10.0113 -4.35124,14.55694 -2.39318,2.72569 -6.71236,6.16034 -9.59818,7.63258 -6.35995,3.2446 -18.1044,3.52972 -23.97354,0.582 z"
       id="path2178"
       transform="scale(0.26458333)" />
    <path
       style="fill:#550000;stroke-width:1;fill-opacity:1"
       d="m 385.69029,425.40344 c -10.4201,-3.12768 -18.89012,-14.40158 -18.84913,-25.08887 0.0645,-16.83197 19.72357,-30.07623 36.44969,-24.55611 6.07668,2.00549 13.89093,8.53679 16.69021,13.95001 2.54838,4.92803 2.57731,16.81924 0.0527,21.65178 -6.24504,11.95395 -21.08606,18.02251 -34.34345,14.04319 z"
       id="path2180"
       transform="scale(0.26458333)" />
    <path
       style="fill:#ff0000;fill-opacity:1;stroke-width:0.999997"
       d="m 673.72492,480.21749 c -5.96988,-0.99016 -11.35261,-3.88571 -15.66056,-8.42437 -5.59792,-5.89769 -7.12599,-9.62884 -7.12231,-17.39086 0.004,-7.93701 1.99541,-12.53001 7.90735,-18.23523 13.70118,-13.22211 36.43286,-9.46919 45.48244,7.50899 2.90697,5.45386 2.90528,16.00434 -0.003,21.45247 -5.86597,10.98718 -18.31803,17.12665 -30.6035,15.089 z"
       id="path3497"
       transform="scale(0.26458333)" />
    <path
       style="fill:#550000;fill-opacity:1;stroke-width:0.999997"
       d="m 616.00041,480.1899 c -13.65343,-2.25164 -24.5663,-16.23851 -22.64839,-29.0281 0.8842,-5.89624 3.35276,-10.54306 7.96577,-14.99477 14.06563,-13.57382 37.56784,-9.23145 45.80793,8.46367 8.64597,18.56675 -9.36832,39.14722 -31.12531,35.5592 z"
       id="path3913"
       transform="scale(0.26458333)" />
    <path
       style="fill:#550000;fill-opacity:1;stroke-width:0.999997"
       d="m 558.46879,480.1899 c -9.56847,-1.57798 -18.99438,-9.77019 -21.69153,-18.85247 -1.8016,-6.06666 -1.79941,-7.81105 0.0175,-13.92911 1.91214,-6.43888 7.9151,-13.16559 14.72031,-16.49506 14.72699,-7.20525 33.44962,0.22375 39.08496,15.50862 2.14248,5.81108 1.55508,12.50769 -1.66179,18.94521 -5.52524,11.057 -17.6215,16.9416 -30.46941,14.82281 z"
       id="path3915"
       transform="scale(0.26458333)" />
    <path
       style="fill:#008000;fill-opacity:1;stroke-width:0.999997"
       d="m 388.27429,425.54234 c -11.15508,-2.12374 -20.58789,-13.57277 -20.6356,-25.04635 -0.0266,-6.38898 1.64959,-10.51979 6.40397,-15.78231 7.43676,-8.23161 20.0616,-11.84931 29.18794,-8.36392 6.38626,2.43893 13.53641,8.4663 15.9445,13.44076 2.29235,4.73537 2.85319,15.14069 1.069,19.83346 -4.10536,10.79792 -19.25186,18.33964 -31.96981,15.91836 z"
       id="path3917"
       transform="scale(0.26458333)" />
  </g>
</svg>
